<?xml version="1.0" encoding="UTF-8" standalone="no"?>
<!-- Created with Inkscape (http://www.inkscape.org/) -->

<svg
   width="768"
   height="256"
   viewBox="0 0 203.2 67.733334"
   version="1.1"
   id="svg1"
   xml:space="preserve"
   inkscape:export-filename="tileset_terrain.png"
   inkscape:export-xdpi="96"
   inkscape:export-ydpi="96"
   inkscape:version="1.4 (86a8ad7, 2024-10-11)"
   sodipodi:docname="tileset_terrain.svg"
   xmlns:inkscape="http://www.inkscape.org/namespaces/inkscape"
   xmlns:sodipodi="http://sodipodi.sourceforge.net/DTD/sodipodi-0.dtd"
   xmlns="http://www.w3.org/2000/svg"
   xmlns:svg="http://www.w3.org/2000/svg"><sodipodi:namedview
     id="namedview1"
     pagecolor="#000000"
     bordercolor="#eeeeee"
     borderopacity="1"
     inkscape:showpageshadow="0"
     inkscape:pageopacity="0"
     inkscape:pagecheckerboard="0"
     inkscape:deskcolor="#000000"
     inkscape:document-units="mm"
     showgrid="true"
     inkscape:zoom="1.7363281"
     inkscape:cx="588.88639"
     inkscape:cy="119.50506"
     inkscape:window-width="3440"
     inkscape:window-height="1369"
     inkscape:window-x="-8"
     inkscape:window-y="-8"
     inkscape:window-maximized="1"
     inkscape:current-layer="layer1"><inkscape:grid
       id="grid1"
       units="px"
       originx="0"
       originy="0"
       spacingx="2.1166666"
       spacingy="2.1166666"
       empcolor="#0099e5"
       empopacity="0.84705882"
       color="#0099e5"
       opacity="0.25490196"
       empspacing="8"
       enabled="true"
       visible="true"
       dotted="false"
       snapvisiblegridlinesonly="true" /></sodipodi:namedview><defs
     id="defs1" /><g
     inkscape:label="Warstwa 1"
     inkscape:groupmode="layer"
     id="layer1"><path
       id="rect3"
       style="fill:#ffffff;stroke-width:0.264999"
       d="M 21.166667 2.1166667 A 2.1166656 2.1166663 0 0 0 19.05 4.2333333 L 19.05 46.566667 A 2.1166656 2.1166663 0 0 0 21.166667 48.683333 L 63.5 48.683333 A 2.1166656 2.1166663 0 0 0 65.616667 46.566667 L 65.616667 4.2333333 A 2.1166656 2.1166663 0 0 0 63.5 2.1166667 L 21.166667 2.1166667 z M 33.866667 14.816667 A 2.1166656 2.1166663 0 0 1 35.983333 16.933333 A 2.1166656 2.1166663 0 0 1 33.866667 19.05 A 2.1166656 2.1166663 0 0 1 31.75 16.933333 A 2.1166656 2.1166663 0 0 1 33.866667 14.816667 z M 50.8 14.816667 A 2.1166656 2.1166663 0 0 1 52.916667 16.933333 A 2.1166656 2.1166663 0 0 1 50.8 19.05 A 2.1166656 2.1166663 0 0 1 48.683333 16.933333 A 2.1166656 2.1166663 0 0 1 50.8 14.816667 z M 33.866667 31.75 A 2.1166656 2.1166663 0 0 1 35.983333 33.866667 A 2.1166656 2.1166663 0 0 1 33.866667 35.983333 A 2.1166656 2.1166663 0 0 1 31.75 33.866667 A 2.1166656 2.1166663 0 0 1 33.866667 31.75 z M 50.8 31.75 A 2.1166656 2.1166663 0 0 1 52.916667 33.866667 A 2.1166656 2.1166663 0 0 1 50.8 35.983333 A 2.1166656 2.1166663 0 0 1 48.683333 33.866667 A 2.1166656 2.1166663 0 0 1 50.8 31.75 z " /><path
       id="rect6"
       style="fill:#ffffff;stroke-width:0.264999"
       d="M 4.2333333 52.916667 A 2.1166656 2.1166663 5.9934347e-05 0 0 2.1166667 55.033333 L 2.1166667 63.5 A 2.1166656 2.1166663 5.9934347e-05 0 0 4.2333333 65.616667 L 12.7 65.616667 A 2.1166656 2.1166663 0 0 0 14.816667 63.5 L 14.816667 55.033333 A 2.1166656 2.1166663 0 0 0 12.7 52.916667 L 4.2333333 52.916667 z " /><path
       id="rect7"
       style="fill:#ffffff;stroke-width:0.264999"
       d="M 21.166667 52.916667 A 2.1166656 2.1166663 0 0 0 19.05 55.033333 L 19.05 63.5 A 2.1166656 2.1166663 0 0 0 21.166667 65.616667 L 63.5 65.616667 A 2.1166656 2.1166663 0 0 0 65.616667 63.5 L 65.616667 55.033333 A 2.1166656 2.1166663 0 0 0 63.5 52.916667 L 21.166667 52.916667 z " /><path
       id="rect8"
       style="fill:#ffffff;stroke-width:0.264999"
       d="M 67.733333 0 L 67.733333 14.816667 A 2.1166656 2.1166663 0 0 1 69.85 16.933333 L 69.85 50.8 A 2.1166656 2.1166663 0 0 1 67.733333 52.916667 L 67.733333 67.733333 L 82.55 67.733333 A 2.1166656 2.1166663 0 0 1 84.666667 65.616667 L 118.53333 65.616667 A 2.1166656 2.1166663 0 0 1 120.65 67.733333 L 135.46667 67.733333 L 135.46667 52.916667 A 2.1166656 2.1166663 0 0 1 133.35 50.8 L 133.35 16.933333 A 2.1166656 2.1166663 0 0 1 135.46667 14.816667 L 135.46667 0 L 120.65 0 A 2.1166656 2.1166663 0 0 1 118.53333 2.1166667 L 84.666667 2.1166667 A 2.1166656 2.1166663 0 0 1 82.55 0 L 67.733333 0 z M 84.666667 14.816667 A 2.1166656 2.1166663 0 0 1 86.783333 16.933333 A 2.1166656 2.1166663 0 0 1 84.666667 19.05 A 2.1166656 2.1166663 0 0 1 82.55 16.933333 A 2.1166656 2.1166663 0 0 1 84.666667 14.816667 z M 118.53333 14.816667 A 2.1166656 2.1166663 0 0 1 120.65 16.933333 A 2.1166656 2.1166663 0 0 1 118.53333 19.05 A 2.1166656 2.1166663 0 0 1 116.41667 16.933333 A 2.1166656 2.1166663 0 0 1 118.53333 14.816667 z M 84.666667 48.683333 A 2.1166656 2.1166663 0 0 1 86.783333 50.8 A 2.1166656 2.1166663 0 0 1 84.666667 52.916667 A 2.1166656 2.1166663 0 0 1 82.55 50.8 A 2.1166656 2.1166663 0 0 1 84.666667 48.683333 z M 118.53333 48.683333 A 2.1166656 2.1166663 0 0 1 120.65 50.8 A 2.1166656 2.1166663 0 0 1 118.53333 52.916667 A 2.1166656 2.1166663 0 0 1 116.41667 50.8 A 2.1166656 2.1166663 0 0 1 118.53333 48.683333 z " /><path
       id="path41"
       style="fill:#ffffff;stroke-width:0.264999"
       d="M 14.816666,4.2333317 A 2.1166663,2.1166656 0 0 0 12.7,2.1166647 H 4.2333329 a 2.1166663,2.1166656 0 0 0 -2.116667,2.116667 V 46.566665 a 2.1166663,2.1166656 0 0 0 2.116667,2.116667 H 12.7 a 2.1166663,2.1166656 0 0 0 2.116666,-2.116667 z" /><path
       id="rect45"
       style="fill:#ffffff;stroke-width:0.264999;fill-opacity:1"
       d="M 154.51667 0 A 2.1166656 2.1166663 0 0 1 152.4 2.1166667 L 139.7 2.1166667 A 2.1166656 2.1166663 0 0 0 137.58333 4.2333333 L 137.58333 33.866667 A 2.1166656 2.1166663 0 0 1 135.46667 35.983333 L 135.46667 48.683333 A 2.1166656 2.1166663 0 0 1 137.58333 50.8 L 137.58333 63.5 A 2.1166656 2.1166663 0 0 0 139.7 65.616667 L 169.33333 65.616667 A 2.1166656 2.1166663 0 0 1 171.45 67.733333 L 184.15 67.733333 A 2.1166656 2.1166663 0 0 1 186.26667 65.616667 L 198.96667 65.616667 A 2.1166656 2.1166663 0 0 0 201.08333 63.5 L 201.08333 33.866667 A 2.1166656 2.1166663 0 0 1 203.2 31.75 L 203.2 19.05 A 2.1166656 2.1166663 0 0 1 201.08333 16.933333 L 201.08333 4.2333333 A 2.1166656 2.1166663 0 0 0 198.96667 2.1166667 L 169.33333 2.1166667 A 2.1166656 2.1166663 0 0 1 167.21667 0 L 154.51667 0 z M 152.4 16.933333 L 154.51667 16.933333 A 2.1166656 2.1166663 89.999729 0 1 152.4 19.05 L 152.4 16.933333 z M 169.33333 16.933333 L 186.26667 16.933333 L 186.26667 33.866667 L 186.26667 35.983333 A 2.1166656 2.1166663 0 0 1 184.15 33.866667 L 169.33333 33.866667 L 167.21667 33.866667 A 2.1166656 2.1166663 89.999621 0 1 169.33333 31.75 L 169.33333 16.933333 z M 169.33333 48.683333 A 2.1166663 2.1166656 89.999459 0 1 171.45 50.8 L 169.33333 50.8 L 169.33333 48.683333 z " /></g></svg>
