<?xml version="1.0" encoding="UTF-8" standalone="no"?>
<!-- Created with Inkscape (http://www.inkscape.org/) -->

<svg
   width="768"
   height="256"
   viewBox="0 0 203.2 67.733334"
   version="1.1"
   id="svg1"
   xml:space="preserve"
   inkscape:export-filename="tileset_terrain.png"
   inkscape:export-xdpi="96"
   inkscape:export-ydpi="96"
   inkscape:version="1.4 (86a8ad7, 2024-10-11)"
   sodipodi:docname="tilemap_terrain.svg"
   xmlns:inkscape="http://www.inkscape.org/namespaces/inkscape"
   xmlns:sodipodi="http://sodipodi.sourceforge.net/DTD/sodipodi-0.dtd"
   xmlns="http://www.w3.org/2000/svg"
   xmlns:svg="http://www.w3.org/2000/svg"><sodipodi:namedview
     id="namedview1"
     pagecolor="#000000"
     bordercolor="#eeeeee"
     borderopacity="1"
     inkscape:showpageshadow="0"
     inkscape:pageopacity="0"
     inkscape:pagecheckerboard="0"
     inkscape:deskcolor="#000000"
     inkscape:document-units="mm"
     showgrid="true"
     inkscape:zoom="9.8221551"
     inkscape:cx="673.22292"
     inkscape:cy="250.19967"
     inkscape:window-width="3440"
     inkscape:window-height="1369"
     inkscape:window-x="-8"
     inkscape:window-y="-8"
     inkscape:window-maximized="1"
     inkscape:current-layer="layer1"><inkscape:grid
       id="grid1"
       units="px"
       originx="0"
       originy="0"
       spacingx="2.1166666"
       spacingy="2.1166666"
       empcolor="#0099e5"
       empopacity="0.84705882"
       color="#0099e5"
       opacity="0.25490196"
       empspacing="8"
       enabled="true"
       visible="true"
       dotted="false"
       snapvisiblegridlinesonly="true" /></sodipodi:namedview><defs
     id="defs1" /><g
     inkscape:label="Warstwa 1"
     inkscape:groupmode="layer"
     id="layer1"><rect
       style="fill:#6c6c6c;stroke-width:0.302901;fill-opacity:1"
       id="rect1"
       width="16.933332"
       height="16.933334"
       x="152.39999"
       y="33.866665" /><path
       style="fill:#6c6c6c;stroke-width:0.264583;fill-opacity:1"
       d="m 168.06651,48.292742 1.26681,2.507255"
       id="path3" /><path
       style="fill:#6c6c6c;stroke-width:0.264999;stroke-dasharray:none;fill-opacity:1"
       d="M 13.927732,48.198457 2.1166666,47.159286 2.7787133,40.216664 2.1166665,33.866664 2.9134003,27.889628 3.2097118,21.678476 2.1166665,16.933332 2.4668527,13.292622 2.8325881,8.9246018 2.1166665,4.233333 3.1133503,2.7631641 6.3499997,2.1166665 9.1939758,3.0211499 14.816666,2.1166665 V 4.233333 l -0.473486,2.1166666 0.473486,4.2333334 -0.323249,3.182774 0.323249,3.167225 -0.284924,4.233333 0.581235,4.233333 0.134687,3.344398 -0.430998,3.005602 v 2.116667 4.233332 4.233333 l 0.550136,3.463537 z"
       id="path4"
       sodipodi:nodetypes="cccccccccccccccccccccccccccc" /><path
       style="fill:#6c6c6c;fill-opacity:1;stroke-width:0.264999;stroke-dasharray:none"
       d="m 2.1166665,52.916663 -0.6285714,3.978575 -0.054883,6.005157 2.1501215,3.306742 6.9999994,0.334268 3.547619,-0.486649 1.080006,-1.426607 -0.394292,-2.859258 0.457143,-3.711748 0.138064,-3.023813 -1.12854,-1.830953 -2.09071,-0.488505 -3.2473851,0.202791 -2.987361,-0.598189 z"
       id="path5"
       sodipodi:nodetypes="ccccccccccccccc" /><path
       style="fill:#6c6c6c;fill-opacity:1;stroke-width:0.264999;stroke-dasharray:none"
       d="m 19.400185,53.536223 -0.350186,2.769371 0.888934,8.502945 3.344399,0.808122 5.027964,-0.323249 5.555368,0.323249 5.833195,0.61956 5.489544,-0.619558 5.610594,0 5.380254,0.673433 8.00873,-0.269374 2.07418,-2.520726 -0.08081,-5.988425 -0.565685,-5.133656 -5.083942,0.969746 -4.206615,-0.08081 L 50.8,52.916665 l -3.802336,-0.430998 -7.178566,-0.08081 -5.952431,0.511811 -6.349999,0.646498 z"
       id="path6"
       sodipodi:nodetypes="cccccccccccccccccccccc" /><path
       style="fill:#6c6c6c;fill-opacity:1;stroke-width:0.264999;stroke-dasharray:none"
       d="m 19.316666,49.064282 5.445239,-0.380952 4.647618,-0.495238 4.457142,0.495238 4.914287,-0.47619 6.619047,0.695238 5.399998,-0.219048 4.728572,0.247619 7.556845,0.199672 2.531249,-2.563957 0.838095,-5.290473 -0.838095,-7.409527 h -12.7 l -0.677381,1.610714 -1.439285,0.505952 -1.725,-1.267856 -0.391666,-0.848809 -12.700001,-10e-7 -0.229762,0.858333 -0.924404,1.258334 -0.9625,-10e-7 -0.677381,-0.982143 -1.024405,-0.376785 -0.414881,-0.757738 H 19.049999 L 18.364285,38.8 l 0.01786,5.649997 z"
       id="path7"
       sodipodi:nodetypes="cccccccccccccccccccccccccccc" /><path
       style="fill:#6c6c6c;fill-opacity:1;stroke-width:0.264999;stroke-dasharray:none"
       d="m 19.049999,16.933332 h 12.699998 l 0.149256,-1.117536 1.118602,-0.99913 h 0.848809 l 0.934524,1.210714 1.182143,0.905952 H 48.68333 l 0.577382,-1.386906 1.539285,-0.72976 1.915476,1.20119 0.20119,0.915476 h 12.7 L 65.978568,13.619048 66.235711,6.7249999 64.75952,2.1166665 60.304762,2.4595237 50.799997,2.1166665 46.780952,2.5357141 44.018792,1.7121587 33.866665,2.1166665 31.123063,1.8561349 20.40238,1.6595236 18.747935,4.2333331 18.569872,7.9238466 19.049999,12.287806 Z"
       id="path8"
       sodipodi:nodetypes="ccccccccccccccccccccccccccc" /><path
       style="fill:#6c6c6c;fill-opacity:1;stroke-width:0.264999;stroke-dasharray:none"
       d="m 19.049999,16.933332 -0.4,5.466668 -0.06307,7.982405 0.463072,3.484259 h 12.699998 l 0.414246,-0.910686 0.97742,-0.347647 0.725001,-0.858334 V 19.049999 l -0.962233,-0.144626 -0.624671,-0.708945 -0.529763,-1.263096 z"
       id="path9"
       sodipodi:nodetypes="ccccccccccccc" /><path
       style="fill:#6c6c6c;fill-opacity:1;stroke-width:0.264999;stroke-dasharray:none"
       d="m 52.916663,16.933332 -0.396427,1.367856 -1.720239,0.748811 v 12.699998 l 1.791669,0.972622 0.324997,1.144045 h 12.7 l 0.457143,-3.58095 -0.842751,-6.324872 0.385608,-7.02751 z"
       id="path10"
       sodipodi:nodetypes="ccccccccccc" /><path
       style="fill:#6c6c6c;fill-opacity:1;stroke-width:0.264999;stroke-dasharray:none"
       d="M 88.899995,33.866665 H 84.666662 V 48.68333 l 1.325,0.791667 0.791667,1.325 H 101.59999 V 33.866665 Z"
       id="path10-1"
       sodipodi:nodetypes="cccccccc" /><path
       style="fill:#6c6c6c;fill-opacity:1;stroke-width:0.264999;stroke-dasharray:none"
       d="M 101.59999,21.166669 V 16.933336 H 86.78333 l -0.296968,0.714497 -1.058006,0.512524 -0.761694,0.889647 v 14.816655 h 16.933328 z"
       id="path10-1-6"
       sodipodi:nodetypes="ccccccccc" /><path
       style="fill:#6c6c6c;fill-opacity:1;stroke-width:0.264999;stroke-dasharray:none"
       d="m 114.30001,33.866659 4.23333,-5e-6 -2e-5,-14.816665 -0.6803,-0.740912 -0.78805,-0.282977 -0.64831,-1.092776 -14.81667,1.8e-5 2e-5,16.933332 z"
       id="path10-1-3"
       sodipodi:nodetypes="ccccccccc" /><path
       style="fill:#6c6c6c;fill-opacity:1;stroke-width:0.264999;stroke-dasharray:none"
       d="m 101.6,46.566675 1e-5,4.23333 14.81666,-1.6e-5 1.11221,-0.842837 1.00446,-1.273835 -2e-5,-14.81666 -16.93333,1.8e-5 z"
       id="path10-1-68"
       sodipodi:nodetypes="cccccccc" /><path
       style="fill:#6c6c6c;fill-opacity:1;stroke-width:0.264999;stroke-dasharray:none"
       d="m 48.68333,16.933332 0.315476,1.363095 1.801191,0.753572 v 12.699998 l -1.853571,0.996429 -0.263095,1.120239 -12.700001,-10e-7 10e-7,-0.734521 -0.896429,-1.262501 -1.220238,-0.119645 V 19.049999 l 1.286904,-0.725 0.829762,-1.391667 z"
       id="path11"
       sodipodi:nodetypes="cccccccccccccc" /><path
       style="fill:#6c6c6c;fill-opacity:1;stroke-width:0.264999;stroke-dasharray:none"
       d="M 101.59999,55.033339 V 50.800006 H 86.783332 l -0.867858,1.515477 -1.24881,0.601191 5e-6,12.699989 6.031561,-0.457936 7.327228,-0.27261 3.574532,0.730546 z"
       id="path12"
       sodipodi:nodetypes="cccccccccc" /><path
       style="fill:#6c6c6c;fill-opacity:1;stroke-width:0.264999;stroke-dasharray:none"
       d="m 101.59999,55.033339 v -4.233333 h 14.81667 l 0.48691,1.210715 1.62976,0.905953 -1e-5,12.699989 -4.89052,0.733939 -5.34757,0.0089 -6.69524,-0.742857 z"
       id="path13"
       sodipodi:nodetypes="cccccccccc" /><path
       style="fill:#6c6c6c;fill-opacity:1;stroke-width:0.264999;stroke-dasharray:none"
       d="m 101.59999,12.699998 v 4.233335 h 14.81667 l 0.35287,-0.925227 0.97484,-0.779606 0.78896,-0.411837 -1e-5,-12.6999965 -6.34999,0 -6.88503,-0.269374 -3.69831,0.269374 z"
       id="path14"
       sodipodi:nodetypes="ccccccccccc" /><path
       style="fill:#6c6c6c;fill-opacity:1;stroke-width:0.264999;stroke-dasharray:none"
       d="m 101.59999,12.699998 v 4.233335 H 86.783326 l -0.223275,-1.017929 -1.893394,-1.098741 1e-5,-12.6999965 4.523068,0.4309984 7.131481,-0.8885552 5.278774,0.4575568 z"
       id="path15"
       sodipodi:nodetypes="cccccccccc" /><path
       style="fill:#6c6c6c;fill-opacity:1;stroke-width:0.264999;stroke-dasharray:none"
       d="m 67.73333,14.816666 1.839285,1.286904 0.277381,0.829762 12.700009,-1.8e-5 0.444458,-1.055895 0.709111,-0.479218 0.963101,-0.581556 L 84.666662,2.1166665 83.398805,1.420238 82.549996,0 67.733325,-3.9628601e-7 Z"
       id="path16"
       sodipodi:nodetypes="cccccccccccc" /><path
       style="fill:#6c6c6c;fill-opacity:1;stroke-width:0.264999;stroke-dasharray:none"
       d="m 135.46666,14.816665 -1.28691,0.505952 -0.82976,1.610714 -12.69998,-1.8e-5 -1.05083,-0.727583 -1.06584,-1.389089 2e-5,-12.6999751 1.05833,-0.7916666 L 120.65002,-5.5185699e-7 135.46666,-9.48143e-7 Z"
       id="path18"
       sodipodi:nodetypes="ccccccccccc" /><path
       style="fill:#6c6c6c;fill-opacity:1;stroke-width:0.264999;stroke-dasharray:none"
       d="m 135.46666,52.916672 -1.43546,-0.438772 -0.68121,-1.677893 -12.69998,1.8e-5 -0.8159,1.381584 -1.30077,0.735087 2e-5,12.699971 1.40852,1.112208 0.70814,1.004458 h 14.81664 z"
       id="path19"
       sodipodi:nodetypes="ccccccccccc" /><path
       style="fill:#6c6c6c;fill-opacity:1;stroke-width:0.264999;stroke-dasharray:none"
       d="m 67.73333,52.916671 0.842837,-0.519584 1.273835,-1.597081 12.699995,1.8e-5 0.829765,1.401193 1.286908,0.715478 -2e-5,12.699971 -1.112206,1.543206 -1.004457,0.57346 H 67.73333 Z"
       id="path20"
       sodipodi:nodetypes="ccccccccccc" /><path
       style="fill:#6c6c6c;fill-opacity:1;stroke-width:0.264999;stroke-dasharray:none"
       d="m 70.254047,46.566664 -0.404045,4.233342 12.700003,-2.8e-5 0.410716,-1.134526 1.705954,-0.982146 -2e-5,-14.81666 -14.816679,2.1e-5 -0.48487,5.310827 z"
       id="path21"
       sodipodi:nodetypes="ccccccccc" /><path
       style="fill:#6c6c6c;fill-opacity:1;stroke-width:0.264999;stroke-dasharray:none"
       d="m 70.792795,21.166665 -0.942799,-4.233351 12.700009,1.8e-5 0.891423,0.743267 0.379612,0.877954 0.845635,0.495449 -2e-5,14.816644 -14.816679,-2.1e-5 -0.478896,-6.955621 z"
       id="path22"
       sodipodi:nodetypes="cccccccccc" /><path
       style="fill:#6c6c6c;fill-opacity:1;stroke-width:0.264999;stroke-dasharray:none"
       d="m 133.9595,22.119017 -0.60953,-5.185706 -12.69997,1.8e-5 -1.01792,1.381584 -1.09874,0.735086 2e-5,14.816644 14.81663,-2.1e-5 z"
       id="path23"
       sodipodi:nodetypes="cccccccc" /><path
       style="fill:#6c6c6c;fill-opacity:1;stroke-width:0.264999;stroke-dasharray:none"
       d="m 132.32141,46.985714 1.02856,3.814283 -12.69997,-1.8e-5 -0.86977,-1.758709 -1.24689,-0.357964 2e-5,-14.816663 14.81663,2.1e-5 0.46666,2.116667 -1.20952,2.116667 z"
       id="path24"
       sodipodi:nodetypes="cccccccccc" /><path
       style="fill:#6c6c6c;stroke-width:0.264999;stroke-dasharray:none;fill-opacity:1"
       d="m 156.63333,50.799997 h -4.23334 v 14.816665 l 2.11667,10e-7 h 14.81666 l 0,-14.816666 z"
       id="path10-1-1"
       sodipodi:nodetypes="ccccccc" /><path
       style="fill:#6c6c6c;fill-opacity:1;stroke-width:0.264999;stroke-dasharray:none"
       d="m 176.71834,2.8170389 -2.03586,-1.1852456 -5.34916,0.4848732 V 16.933332 l 2.11667,1e-6 h 14.81666 V 2.1166665 Z"
       id="path26"
       sodipodi:nodetypes="cccccccc" /><path
       style="fill:#6c6c6c;fill-opacity:1;stroke-width:0.264999;stroke-dasharray:none"
       d="M 186.26666,46.56666 V 50.8 h 14.81667 v -2.11667 l -0.78118,-2.916685 0.0657,-7.666647 0.71543,-4.233329 h -14.81667 z"
       id="path27"
       sodipodi:nodetypes="ccccccccc" /><path
       style="fill:#6c6c6c;fill-opacity:1;stroke-width:0.264999;stroke-dasharray:none"
       d="m 136.96377,29.633331 0.61956,4.233336 H 152.4 v -2.11667 -14.816661 h -14.81667 l -0.6869,5.945937 z"
       id="path28"
       sodipodi:nodetypes="cccccccc" /><path
       style="fill:#6c6c6c;fill-opacity:1;stroke-width:0.264999;stroke-dasharray:none"
       d="m 171.44999,50.799997 14.81669,-10e-7 -2e-5,-14.816665 -1.43928,-0.60119 -0.67738,-1.515475 -14.81667,1.8e-5 -1e-5,14.816646 1.47738,0.601191 z"
       id="path29"
       sodipodi:nodetypes="ccccccccc" /><path
       style="fill:#6c6c6c;fill-opacity:1;stroke-width:0.264999;stroke-dasharray:none"
       d="m 169.33332,31.749994 v -14.81666 l -14.81667,2e-5 -0.94404,1.324997 -1.17262,0.791663 2e-5,14.81664 14.81664,1e-5 1e-5,-1.515478 z"
       id="path30"
       sodipodi:nodetypes="ccccccccc" /><path
       style="fill:#6c6c6c;fill-opacity:1;stroke-width:0.264999;stroke-dasharray:none"
       d="m 152.39999,38.100009 v -4.233333 h -14.81666 l -0.76202,1.597082 -1.35464,0.519586 -1e-5,12.699986 1.70483,0.465711 0.41184,1.650956 14.81666,2e-6 z"
       id="path31"
       sodipodi:nodetypes="cccccccccc" /><path
       style="fill:#6c6c6c;fill-opacity:1;stroke-width:0.264999;stroke-dasharray:none"
       d="m 156.63333,50.799997 h -4.23334 v 14.816665 l 4.23334,0.329621 1.33132,0.559314 7.13534,-0.377123 4.23333,-0.511811 V 50.799997 Z"
       id="path32"
       sodipodi:nodetypes="ccccccccc" /><path
       style="fill:#6c6c6c;fill-opacity:1;stroke-width:0.264999;stroke-dasharray:none"
       d="m 139.7,50.799997 h -2.11667 l -0.61956,8.466666 0.61956,3.953908 -0.53875,2.072842 4.10642,1.252589 5.83041,-0.417529 5.41858,-0.511811 V 50.799996 Z"
       id="path33"
       sodipodi:nodetypes="cccccccccc" /><path
       style="fill:#6c6c6c;fill-opacity:1;stroke-width:0.264999;stroke-dasharray:none"
       d="m 144.41405,2.1166665 -3.98675,-0.3501862 -2.04845,3.0031284 -0.0951,7.9303903 -0.70037,4.233333 h 14.81666 V 2.116666 Z"
       id="path34"
       sodipodi:nodetypes="cccccccc" /><path
       style="fill:#6c6c6c;fill-opacity:1;stroke-width:0.264999;stroke-dasharray:none"
       d="m 194.22874,2.6554153 -7.96209,-0.538748 V 16.933332 h 14.81666 l 1.0779,-10.3085299 -0.59303,-5.2893204 z"
       id="path35"
       sodipodi:nodetypes="ccccccc" /><path
       style="fill:#6c6c6c;fill-opacity:1;stroke-width:0.264999;stroke-dasharray:none"
       d="m 188.38333,50.799997 h -2.11667 v 14.816665 l 6.35,0.781185 9.05928,0.107749 0.27337,-3.773456 -1.20151,-4.519208 0.33552,-7.412936 z"
       id="path36"
       sodipodi:nodetypes="ccccccccc" /><path
       style="fill:#6c6c6c;fill-opacity:1;stroke-width:0.264999;stroke-dasharray:none"
       d="m 173.56667,50.799998 h -4.23334 v 14.81666 l 1.43929,0.867854 0.67738,1.248806 12.69999,1e-5 0.63928,-1.325002 1.47738,-0.791668 1e-5,-14.81666 z"
       id="path37"
       sodipodi:nodetypes="cccccccccc" /><path
       style="fill:#6c6c6c;fill-opacity:1;stroke-width:0.264999;stroke-dasharray:none"
       d="m 156.63333,16.933334 h -4.23334 V 2.1166661 L 153.67382,1.3277096 154.51666,5.0000027e-6 167.21665,-5.0000027e-6 168.30192,0.60039473 l 1.03139,1.51627137 10e-6,14.8166679 z"
       id="path38"
       sodipodi:nodetypes="cccccccccc" /><path
       style="fill:#6c6c6c;fill-opacity:1;stroke-width:0.264999;stroke-dasharray:none"
       d="m 186.26666,21.166646 1e-5,-4.23334 14.81667,4.3e-5 0.77502,1.502353 1.34163,0.614323 -2e-5,12.69999 -1.30078,0.627329 -0.8159,1.489325 -14.81667,-3.3e-5 z"
       id="path39"
       sodipodi:nodetypes="cccccccccc" /><path
       style="fill:#969696;fill-opacity:1;stroke-width:0.213704;stroke-dasharray:none"
       d="M 12.699999,46.22912 4.004647,45.601075 4.4620192,39.065587 4.2333331,33.866665 4.5550671,27.461442 4.7597726,21.614529 4.2333331,16.933332 4.2465716,13.720444 4.4992383,9.6085766 3.6813982,5.2732289 4.6393269,3.8623373 6.6867903,3.6847505 9.4865984,4.5361926 13.155511,3.5231261 l -0.161625,1.9386646 -0.542605,1.7231654 0.327106,3.9850789 -0.223315,2.996128 0.144927,2.767169 -0.11845,4.199399 0.401543,3.98508 0.09305,3.148273 -0.297753,2.829345 -0.07839,2.771236 0.07839,3.206382 0.430998,4.173641 0.218435,3.203309 z"
       id="path122"
       sodipodi:nodetypes="cccccccccccccccccccccccccccc" /><path
       style="fill:#969696;fill-opacity:1;stroke-width:0.206409;stroke-dasharray:none"
       d="m 3.8416199,54.287212 -0.4799573,3.161175 -0.041907,4.771398 1.6417651,2.627372 5.3449793,0.265592 2.70885,-0.386666 0.824659,-1.133513 -0.301068,-2.271822 0.349059,-2.94917 0.105421,-2.40257 -1.293422,-0.935678 -1.164696,-0.907247 -2.4796008,0.161129 -2.2810549,-0.475293 z"
       id="path124"
       sodipodi:nodetypes="ccccccccccccccc" /><path
       style="fill:#969696;fill-opacity:1;stroke-width:0.237343;stroke-dasharray:none"
       d="m 20.892603,54.674062 -0.275454,2.475934 0.863334,6.625449 2.604992,0.206339 4.965902,-0.02539 4.815288,-0.456396 6.096503,1.366964 4.909062,-0.618508 5.927767,-0.748456 5.025333,1.507704 7.416002,-0.322748 1.570001,-2.071825 -0.01961,-4.638688 -0.327749,-3.650096 -4.047638,0.495224 -4.985809,0.213763 h -4.630532 l -4.233331,-0.846551 -6.547389,-0.03016 -6.15261,0.876706 -5.741433,0 z"
       id="path125"
       sodipodi:nodetypes="cccccccccccccccccccccc" /><path
       style="fill:#969696;fill-opacity:1;stroke-width:0.264999;stroke-dasharray:none"
       d="m 20.968068,47.337813 3.328572,-0.187208 4.895237,-1.047619 4.674788,0.463678 4.233333,-0.304762 7.025212,1.031561 5.674787,-0.726799 4.453783,0.75537 7.175893,0.218719 1.66463,-1.907422 0.609524,-4.35714 -1.20383,-7.409526 H 55.03333 l -0.319519,2.116666 -1.797147,1.110291 -2.116667,1.006376 -3.300838,-1.539312 -0.932495,-2.694021 h -8.466666 l -0.905279,2.339889 -1.745995,1.893444 h -1.582059 l -1.539379,-2.116667 -1.940276,-0.456526 -0.753678,-1.66014 h -8.466666 l -1.039169,5.085716 -0.104876,5.113396 z"
       id="path126"
       sodipodi:nodetypes="ccccccccccccccccccccccccccccc" /><path
       style="fill:#969696;fill-opacity:1;stroke-width:0.264999;stroke-dasharray:none"
       d="m 21.166666,16.933332 h 8.466666 l 0.676614,-2.599093 2.007537,-0.68935 1.549182,-0.94489 2.116666,2.519259 2.116667,1.714074 h 8.466666 l 1.454928,-2.679901 2.778405,-1.553432 3.747219,1.849769 0.486114,2.383564 h 8.466667 L 63.861902,13.619048 64.442293,7.2637482 62.777541,3.7329108 60.439449,4.0757678 50.934684,3.7329106 46.915639,4.1519582 44.153479,3.3284028 34.001352,3.7329106 31.25775,3.472379 22.653734,3.2757679 20.864602,4.2333334 20.686539,7.9238469 21.166666,12.287806 Z"
       id="path127"
       sodipodi:nodetypes="ccccccccccccccccccccccccccc" /><path
       style="fill:#969696;fill-opacity:1;stroke-width:0.264999;stroke-dasharray:none"
       d="m 46.566664,16.933332 1.172619,2.810714 3.060714,1.422619 0,8.466666 -3.015476,1.303571 -1.217857,2.929763 H 38.099998 V 32.427381 L 36.70595,30.269642 33.866665,29.633331 v -8.466666 l 2.524998,-1.489285 1.708335,-2.744048 z"
       id="path128"
       sodipodi:nodetypes="cccccccccccccc" /><path
       style="fill:#969696;fill-opacity:1;stroke-width:0.264999;stroke-dasharray:none"
       d="m 21.166664,16.933333 -0.4,5.466668 -0.06307,7.982405 0.463072,3.484259 8.466666,0 0.816627,-1.863068 1.834563,-0.976218 1.582143,-1.394048 0,-8.466666 -2.116667,-0.432721 -1.317855,-1.470849 -0.798811,-2.329763 z"
       id="path129"
       sodipodi:nodetypes="ccccccccccccc" /><path
       style="fill:#969696;fill-opacity:1;stroke-width:0.264999;stroke-dasharray:none"
       d="m 55.03333,16.933332 -1.560713,3.069048 -2.67262,1.164285 0,8.466666 3.798505,1.944448 0.434828,2.288886 h 8.466667 l 0.457143,-3.58095 -0.842751,-6.324872 0.385608,-7.02751 z"
       id="path130"
       sodipodi:nodetypes="ccccccccccc" /><rect
       style="fill:#969696;stroke-width:0.302901;fill-opacity:1"
       id="rect130"
       width="16.933332"
       height="16.933334"
       x="152.39999"
       y="33.866665" /><path
       style="fill:#969696;stroke-width:0.264583;fill-opacity:1"
       d="m 168.06651,48.292742 1.26681,2.507255"
       id="path131" /><path
       style="fill:#969696;fill-opacity:1;stroke-width:0.264999;stroke-dasharray:none"
       d="m 88.899995,33.866665 h -4.233333 l -1.3e-5,12.700023 3.096442,1.289261 1.136901,2.944039 12.699998,9e-6 V 33.866665 Z"
       id="path132"
       sodipodi:nodetypes="cccccccc" /><path
       style="fill:#969696;fill-opacity:1;stroke-width:0.264999;stroke-dasharray:none"
       d="m 101.59999,21.166669 v -4.233333 l -12.699995,-4e-6 -1.442204,1.514501 -1.381816,0.988714 -1.409313,1.730118 0,12.699994 h 16.933328 z"
       id="path133"
       sodipodi:nodetypes="ccccccccc" /><path
       style="fill:#969696;fill-opacity:1;stroke-width:0.264999;stroke-dasharray:none"
       d="m 114.30001,33.866659 4.23333,-5e-6 -3e-5,-12.699999 -1.30886,-1.619483 -1.72138,-0.497173 -1.20308,-2.116667 -12.7,10e-6 2e-5,16.933332 z"
       id="path134"
       sodipodi:nodetypes="ccccccccc" /><path
       style="fill:#969696;fill-opacity:1;stroke-width:0.264999;stroke-dasharray:none"
       d="m 101.6,46.566675 1e-5,4.23333 12.69998,-8e-6 2.44794,-1.719035 1.7854,-2.514298 -1e-5,-12.700007 -16.93333,1.8e-5 z"
       id="path135"
       sodipodi:nodetypes="cccccccc" /><path
       style="fill:#969696;fill-opacity:1;stroke-width:0.264999;stroke-dasharray:none"
       d="m 101.59999,55.033339 v -4.233333 l -12.699995,-9e-6 -1.746426,2.982153 -2.486913,1.251159 2e-5,8.466687 6.031561,-0.457936 7.327228,-0.27261 3.574535,0.730546 z"
       id="path136"
       sodipodi:nodetypes="cccccccccc" /><path
       style="fill:#969696;fill-opacity:1;stroke-width:0.264999;stroke-dasharray:none"
       d="m 101.59999,55.033339 v -4.233333 l 12.69999,8e-6 1.02264,2.582136 3.2107,1.651158 1e-5,8.466688 -4.89052,0.733939 -5.34757,0.0089 L 101.6,63.499978 Z"
       id="path137"
       sodipodi:nodetypes="cccccccccc" /><path
       style="fill:#969696;fill-opacity:1;stroke-width:0.264999;stroke-dasharray:none"
       d="m 67.73333,12.699999 2.963095,1.822619 1.270238,2.410714 h 8.466666 l 1.284944,-2.116666 1.394825,-0.923227 1.553564,-1.19344 0,-8.4666659 L 81.979757,3.0011904 80.433329,0 67.733325,-3.9628601e-7 Z"
       id="path140"
       sodipodi:nodetypes="cccccccccccc" /><path
       style="fill:#969696;fill-opacity:1;stroke-width:0.264999;stroke-dasharray:none"
       d="m 135.46666,12.699999 -2.11667,0.992905 -2.11666,3.240417 -8.46666,-5e-6 -2.11668,-1.641872 -2.11665,-2.591467 -10e-6,-8.4666439 1.89342,-1.0227157 L 122.76666,0 l 12.7,-9.48143e-7 z"
       id="path141"
       sodipodi:nodetypes="ccccccccccc" /><path
       style="fill:#969696;fill-opacity:1;stroke-width:0.264999;stroke-dasharray:none"
       d="m 135.46666,55.206351 -2.55336,-1.206488 -1.67997,-3.199866 h -8.46667 l -1.82779,2.733993 -2.40554,1.49934 0,8.466666 2.87664,1.289386 1.35669,2.943947 12.7,4e-6 z"
       id="path142"
       sodipodi:nodetypes="ccccccccccc" /><path
       style="fill:#969696;fill-opacity:1;stroke-width:0.264999;stroke-dasharray:none"
       d="m 67.73333,55.03333 2.116666,-0.669813 2.116667,-3.56352 8.466658,4.6e-5 1.384536,2.677364 2.848805,1.555923 0,8.466666 -1.906871,2.932566 -2.326462,1.300767 -12.699999,3e-6 z"
       id="path143"
       sodipodi:nodetypes="ccccccccccc" /><path
       style="fill:#969696;fill-opacity:1;stroke-width:0.264999;stroke-dasharray:none"
       d="m 72.370708,46.566655 -0.404045,4.233342 8.466666,0 0.603582,-1.915497 3.629751,-2.317836 -7e-6,-12.700018 -12.700018,1.2e-5 -0.48487,5.310827 z"
       id="path144"
       sodipodi:nodetypes="ccccccccc" /><path
       style="fill:#969696;fill-opacity:1;stroke-width:0.264999;stroke-dasharray:none"
       d="m 72.909456,21.166656 -0.942799,-4.233351 8.466672,2.7e-5 1.693813,1.371838 0.79866,1.620812 1.74086,1.240683 -7e-6,12.699981 -12.700018,-3e-5 -0.478896,-6.955621 z"
       id="path145"
       sodipodi:nodetypes="cccccccccc" /><path
       style="fill:#969696;fill-opacity:1;stroke-width:0.264999;stroke-dasharray:none"
       d="m 131.84286,22.119027 -0.60953,-5.185706 -8.46667,1.1e-5 -2.11667,3.2292 -2.11666,1.004133 3e-5,12.699978 12.69999,-1.1e-5 z"
       id="path146"
       sodipodi:nodetypes="cccccccc" /><path
       style="fill:#969696;fill-opacity:1;stroke-width:0.264999;stroke-dasharray:none"
       d="m 130.20475,46.985704 1.02856,3.814283 -8.46666,-3.6e-5 -1.38642,-2.996776 -2.8469,-1.236522 3e-5,-12.70001 12.69997,1.1e-5 0.46666,2.116667 -1.20952,2.116667 z"
       id="path147"
       sodipodi:nodetypes="cccccccccc" /><path
       style="fill:#969696;fill-opacity:1;stroke-width:0.264999;stroke-dasharray:none"
       d="m 176.71835,4.9337059 -2.03586,-1.1852456 -5.34916,0.4848732 -1e-5,12.6999985 2.11667,1e-6 h 14.81666 l 1e-5,-12.6999995 z"
       id="path149"
       sodipodi:nodetypes="cccccccc" /><path
       style="fill:#969696;fill-opacity:1;stroke-width:0.264999;stroke-dasharray:none"
       d="M 186.26666,46.56666 V 50.8 l 12.70005,-4e-6 v -2.11667 l -0.78118,-2.916685 0.0657,-7.666647 0.71543,-4.233329 -12.70005,4e-6 z"
       id="path150"
       sodipodi:nodetypes="ccccccccc" /><path
       style="fill:#969696;fill-opacity:1;stroke-width:0.264999;stroke-dasharray:none"
       d="m 139.08043,29.633329 0.61956,4.233336 12.70001,2e-6 v -2.11667 -14.816661 l -12.70001,-2e-6 -0.6869,5.945937 z"
       id="path151"
       sodipodi:nodetypes="cccccccc" /><path
       style="fill:#969696;fill-opacity:1;stroke-width:0.264999;stroke-dasharray:none"
       d="m 173.56666,50.799997 12.70002,-10e-7 -2e-5,-12.699998 -3.11547,-1.098809 -1.11787,-3.134524 -12.69999,1.9e-5 -1e-5,12.69998 2.94405,1.365476 z"
       id="path152"
       sodipodi:nodetypes="ccccccccc" /><path
       style="fill:#969696;fill-opacity:1;stroke-width:0.264999;stroke-dasharray:none"
       d="m 169.33332,29.633331 0,-12.699997 -12.69999,-2e-6 -1.68929,3.115495 -2.54405,1.117838 2e-5,12.699989 12.69998,1.1e-5 v -2.116667 z"
       id="path153"
       sodipodi:nodetypes="ccccccccc" /><path
       style="fill:#969696;fill-opacity:1;stroke-width:0.264999;stroke-dasharray:none"
       d="m 152.39999,38.100009 v -4.233333 l -12.7,-1.1e-5 -1.05011,2.33995 -3.18322,1.893383 v 8.466666 l 3.72388,1.706187 0.50945,2.527146 12.7,2e-6 z"
       id="path154"
       sodipodi:nodetypes="cccccccccc" /><path
       style="fill:#969696;fill-opacity:1;stroke-width:0.264999;stroke-dasharray:none"
       d="m 156.63333,50.799997 h -4.23334 l 0,12.699998 4.23334,0.329621 1.33132,0.559314 7.13534,-0.377123 4.23333,-0.511811 0,-12.699999 z"
       id="path155"
       sodipodi:nodetypes="ccccccccc" /><path
       style="fill:#969696;fill-opacity:1;stroke-width:0.264999;stroke-dasharray:none"
       d="m 139.7,50.799997 h -10e-6 l -0.61956,8.466666 0.61956,3.953908 1.45101,1.208769 5.83041,-0.417529 L 152.39999,63.5 V 50.800001 Z"
       id="path156"
       sodipodi:nodetypes="ccccccccc" /><path
       style="fill:#969696;fill-opacity:1;stroke-width:0.264999;stroke-dasharray:none"
       d="m 144.414,4.2333336 -2.97485,-0.5216172 -1.17221,2.353128 0.13347,6.6351526 -0.70037,4.233333 12.7,2e-6 -5e-5,-12.6999989 z"
       id="path157"
       sodipodi:nodetypes="cccccccc" /><path
       style="fill:#969696;fill-opacity:1;stroke-width:0.264999;stroke-dasharray:none"
       d="m 194.22875,4.7720823 -7.96209,-0.538748 -1e-5,12.6999977 12.69998,-1.7e-5 1.0779,-10.3085296 -0.59302,-3.1726535 z"
       id="path158"
       sodipodi:nodetypes="ccccccc" /><path
       style="fill:#969696;fill-opacity:1;stroke-width:0.264999;stroke-dasharray:none"
       d="m 188.38333,50.799997 h -2.11667 l 0,12.699999 6.35,0.781185 6.94266,0.107745 0.27337,-1.65679 -1.20151,-4.519208 0.33552,-7.412936 z"
       id="path159"
       sodipodi:nodetypes="ccccccccc" /><path
       style="fill:#969696;fill-opacity:1;stroke-width:0.264999;stroke-dasharray:none"
       d="m 173.56667,50.799998 h -4.23334 v 12.699993 l 2.5631,1.594045 1.67023,2.639293 h 8.46666 l 2.11667,-3.555958 2.11666,-0.677382 1e-5,-12.699994 z"
       id="path160"
       sodipodi:nodetypes="cccccccccc" /><path
       style="fill:#969696;fill-opacity:1;stroke-width:0.264999;stroke-dasharray:none"
       d="m 156.63333,16.933334 h -4.23334 l -5e-5,-12.7000008 1.61674,-0.8294331 L 156.63333,0 h 8.46666 l 2.72574,2.371823 1.50759,1.8615098 V 16.933334 Z"
       id="path161"
       sodipodi:nodetypes="cccccccccc" /><path
       style="fill:#969696;fill-opacity:1;stroke-width:0.264999;stroke-dasharray:none"
       d="m 186.26666,21.166646 1e-5,-4.23334 12.69999,2.6e-5 1.31075,2.835703 2.92258,1.39763 0,8.466666 -2.69131,2.116667 -1.54204,2.116667 -12.70005,-2.9e-5 z"
       id="path162"
       sodipodi:nodetypes="cccccccccc" /><path
       style="fill:#969696;fill-opacity:1;stroke-width:0.264999;stroke-dasharray:none"
       d="m 101.59999,12.699998 v 4.233335 l -12.699999,-4e-6 -0.549464,-2.116663 -3.683865,-2.116667 V 4.2333331 l 4.523068,0.4309984 7.131481,-0.8885552 5.278779,0.4575568 z"
       id="path163"
       sodipodi:nodetypes="cccccccccc" /><path
       style="fill:#969696;fill-opacity:1;stroke-width:0.264999;stroke-dasharray:none"
       d="m 101.59999,12.699998 v 4.233335 l 12.7,8e-6 0.94573,-1.572854 1.52722,-1.598654 1.76039,-1.061834 -1e-5,-8.4666659 h -6.34999 l -6.88503,-0.269374 -3.69831,0.269374 z"
       id="path164"
       sodipodi:nodetypes="ccccccccccc" /></g></svg>
